
<svg width="79" height="31" viewBox="0 0 79 31" fill="none" xmlns="http://www.w3.org/2000/svg">
<style>
    path { fill: black; }
    @media (prefers-color-scheme: dark) {
      path { fill: white; }
    }
  </style>
<path d="M39.4452 0.0473108C39.1136 0.171649 36.5225 2.68328 36.4365 2.95682C36.2769 3.46661 36.7067 3.62824 38.6224 3.72771C40.3907 3.81475 40.882 3.87692 41.0907 4.00126C41.1521 4.03856 41.4223 4.41157 41.6802 4.82189C42.1468 5.54305 42.1591 5.59278 41.9258 5.67982C41.7047 5.75442 40.4767 5.87876 37.7996 6.0777C37.333 6.115 34.4225 6.17717 31.3525 6.21447C24.5246 6.30151 24.5 6.30151 23.5176 6.78643C22.0317 7.54489 20.3002 9.89488 19.6862 12.0211C19.5265 12.5681 19.4897 12.6054 19.023 12.6676C18.4704 12.7547 17.488 12.8293 15.8179 12.9287C13.7548 13.0531 11.9987 13.4385 9.00231 14.4208C7.24623 15.0052 6.37433 15.2165 5.74804 15.2538C4.22528 15.3409 2.56744 16.3729 2.42008 17.3427C2.35867 17.6784 2.16219 17.9768 1.60958 18.5364C1.20433 18.9343 0.663994 19.5932 0.406108 19.9787C-0.0114221 20.6252 -0.048263 20.7372 0.0376991 21.2221C0.148222 21.794 0.627153 22.3038 1.08152 22.3287C1.21661 22.3287 1.42537 22.3535 1.5359 22.3784C1.64642 22.4033 1.95343 22.366 2.21131 22.3162C2.4692 22.2541 3.10777 22.1297 3.62355 22.0303C4.55685 21.8562 4.56913 21.8562 4.44633 22.0924C4.37264 22.2292 4.28668 22.4903 4.26212 22.6644C4.23756 22.8509 4.18844 23.112 4.1516 23.2612C4.10248 23.4726 2.39552 24.8279 1.95343 25.0019C1.74466 25.089 1.26573 25.8972 1.26573 26.1583C1.26573 26.2826 1.37625 26.5313 1.52361 26.7178C1.99027 27.3146 2.42008 27.4514 4.0902 27.4887C5.94452 27.526 7.44272 27.3146 8.87951 26.78C11.225 25.922 14.7741 24.9149 16.0021 24.7533C16.6038 24.6787 18.5809 24.517 19.0599 24.5046C19.3178 24.4922 19.3792 24.6041 19.6739 25.6112C20.5581 28.558 21.8843 30.2614 23.5545 30.622C24.3158 30.7837 25.1018 30.6593 26.5263 30.162C29.1543 29.2543 35.4909 27.526 37.3452 27.2152C37.5294 27.1903 38.1803 27.0535 38.782 26.9167C40.2679 26.6059 41.717 26.3572 44.6766 25.9345C48.0659 25.4496 48.987 25.3501 52.9044 25.1138C54.0219 25.0392 58.2217 25.0392 61.9918 25.1014C62.8268 25.1138 63.6742 24.8279 64.2391 24.3678C65.2461 23.5348 66.5355 21.8065 67.3092 20.2274L67.8741 19.071L68.4389 19.1456C70.0354 19.3694 71.8897 19.2202 73.1055 18.785C76.6667 17.4919 79 14.1845 79 10.4295C79 6.35125 76.2861 2.88222 72.3072 1.85021C70.5266 1.40259 68.0951 1.63884 66.425 2.4346L65.8846 2.68328L65.2829 2.24809C64.104 1.39016 62.7163 1.29069 60.0883 1.86265C59.7322 1.93725 59.02 2.09889 58.9217 2.11132C58.7498 2.16106 54.7833 3.16819 54.5622 3.23036C53.7517 3.45417 51.9833 3.91422 51.7377 3.96396C51.5658 3.98882 50.8781 4.1629 50.2027 4.33697C49.2694 4.57321 48.9624 4.62295 48.8887 4.49861C48.7045 4.2002 48.8028 4.1629 49.6869 4.1629C50.215 4.1629 50.6448 4.10073 50.7308 4.01369C50.9272 3.81475 50.915 3.3547 50.6939 3.16819C50.5466 3.04386 48.0291 2.29783 44.6766 1.36529C42.6749 0.818206 39.875 0.0473108 39.7645 0.0100094C39.7031 -0.0148582 39.5557 0.0100094 39.4452 0.0473108ZM41.0539 1.60154C41.4223 1.70101 42.6994 2.06159 43.8784 2.3973C45.0573 2.73301 46.1748 3.04386 46.3713 3.09359C46.6046 3.14333 46.7028 3.25523 46.7028 3.44174C46.7028 3.59094 46.9116 3.93909 47.1818 4.22507C47.7344 4.80946 48.1887 5.61765 48.6185 6.76156C49.3062 8.62663 49.8834 11.5734 49.8466 13.165L49.8343 13.9234L47.5624 13.8861C46.3221 13.8737 45.2415 13.7991 45.1801 13.7369C45.1187 13.6748 45.045 13.3017 45.0204 12.9039C44.7871 8.93748 43.5345 4.87162 42.0486 3.29253L41.4837 2.69571L40.4399 2.62111C39.8627 2.58381 39.175 2.5465 38.9171 2.5465H38.4382L39.1013 1.91238C39.8136 1.22852 39.7522 1.24096 41.0539 1.60154ZM64.19 2.98169C64.6689 3.21793 65.5285 4.26237 65.9952 5.18247L66.2285 5.63009L65.5776 5.77929C64.7794 5.95336 59.155 7.08484 58.2463 7.25891C57.8779 7.33352 57.4358 7.42055 57.2639 7.45785C56.9814 7.52002 55.6306 7.7687 54.5622 7.95521C54.3289 7.99251 53.5552 8.14171 52.843 8.26605C52.1307 8.40282 51.3202 8.52716 51.0255 8.53959L50.4974 8.5769L50.0185 7.14701C49.7483 6.36368 49.5641 5.70469 49.601 5.66739C49.6255 5.63009 49.7238 5.59278 49.8097 5.58035C50.436 5.46845 50.8044 5.39384 50.8658 5.35654C50.9027 5.33167 51.136 5.26951 51.3693 5.2322C51.6027 5.1949 52.9289 4.88406 54.3166 4.52348C55.7043 4.17533 56.92 3.87692 57.0183 3.85205C57.1165 3.82719 58.1112 3.59094 59.2287 3.3174C61.6357 2.72058 61.7462 2.70814 62.8514 2.73301C63.404 2.74544 63.883 2.83248 64.19 2.98169ZM72.4669 3.15576C74.1616 3.69041 75.9545 5.10787 76.7527 6.52532C77.8579 8.48986 78.1281 10.7404 77.4772 12.68C76.9492 14.2467 76.0773 15.515 74.9229 16.3978C74.5545 16.6837 74.4317 16.7086 74.223 16.5967C74.0756 16.5221 73.9651 16.4351 73.9651 16.3978C73.9651 16.348 74.1247 15.975 74.3335 15.5523C75.3159 13.4509 74.9966 11.0885 73.4493 9.18615C72.8353 8.41526 71.4599 7.47029 70.5512 7.18431L69.8512 6.9605L69.8021 6.21447C69.7284 4.95866 69.581 4.87162 68.1319 5.20734C67.7267 5.30681 67.3951 5.38141 67.3828 5.36898C67.3828 5.35654 67.1741 4.97109 66.9407 4.51104L66.5109 3.67798L67.1864 3.40444C67.5548 3.25523 68.1442 3.05629 68.4881 2.95682C69.3722 2.73301 71.4722 2.83248 72.4669 3.15576ZM68.6477 8.78827C68.4758 14.8311 66.8179 19.929 64.0303 22.9255C63.1216 23.8953 62.79 24.0197 61.4392 23.9078C60.3217 23.8207 52.6956 23.8829 51.6763 23.9824C51.3448 24.0197 50.6448 24.0818 50.1413 24.1191C48.8396 24.2186 47.6607 24.3305 47.4396 24.3678C47.3414 24.3927 46.8993 24.4424 46.4572 24.4922C46.0151 24.5419 45.573 24.5916 45.4748 24.6165C45.3765 24.6289 44.9836 24.6911 44.6152 24.7408C44.0012 24.8154 40.7592 25.3377 39.8873 25.4869C39.1013 25.6361 37.0996 26.0588 35.2207 26.4816C34.1401 26.7302 33.1699 26.9541 33.0594 26.9789C32.9489 27.0038 32.0279 27.2525 31.0332 27.5384C28.0368 28.3964 28.0245 28.3964 28.1227 28.2472C28.1596 28.1601 28.4052 27.7871 28.6508 27.4141C30.7998 24.1813 32.3717 18.1261 32.4945 12.6552L32.5191 11.2502L34.4225 11.2377C35.4664 11.2377 36.633 11.2129 37.0014 11.188C37.3698 11.1631 38.8434 11.1134 40.2557 11.0637C41.6802 11.0264 43.0065 10.9642 43.2152 10.9269C43.5836 10.8523 43.5959 10.8771 43.6819 11.3745C43.731 11.6729 43.7924 12.4189 43.8292 13.0406C43.9275 14.6943 43.9275 14.6943 44.5292 14.8808C45.2537 15.0922 50.3378 15.0798 50.743 14.8684L51.0378 14.7068L50.9518 12.8168C50.9027 11.7848 50.8536 10.6906 50.8413 10.3922L50.8167 9.83271L51.7377 9.67107C52.2412 9.58403 53.1254 9.42239 53.7026 9.32292C54.2798 9.23589 55.2131 9.06181 55.7902 8.94991C56.3674 8.83801 57.3867 8.6515 58.0621 8.52716C59.2042 8.30335 61.6725 7.81843 62.2374 7.6941C62.9619 7.53246 64.3987 7.23405 64.8777 7.14701C65.2829 7.05997 67.7267 6.51289 68.6723 6.28908C68.6968 6.27664 68.6846 7.40812 68.6477 8.78827ZM42.8222 7.39569C43.031 7.94277 43.4363 9.62134 43.3626 9.69594C43.3012 9.75811 41.4469 9.85758 38.9048 9.94461C32.4822 10.1436 31.4753 10.2057 31.4139 10.4295C31.3893 10.5041 31.3402 11.4864 31.2911 12.6179C31.2542 13.7494 31.1928 14.943 31.156 15.2911C31.0946 15.8382 30.5911 18.8721 30.456 19.5186C30.1613 20.8118 29.6578 22.453 29.1174 23.8207L28.7367 24.803H28.0736H27.3982L27.8894 24.2435C28.8104 23.1866 29.842 20.6501 30.2349 18.4742C30.9963 14.3462 30.2718 10.0565 28.4543 7.90547L28.0368 7.42055L31.1314 7.39569C35.8716 7.37082 41.2258 7.14701 41.41 6.94807C41.4346 6.9232 41.7293 6.89833 42.0486 6.89833C42.6012 6.89833 42.6258 6.91077 42.8222 7.39569ZM26.3789 7.75627C26.8947 7.99251 27.8034 8.92504 28.1227 9.55917C28.3438 9.98192 28.2947 10.0192 27.3614 10.3301C27.0298 10.442 26.3912 10.7031 25.9491 10.9145C25.0772 11.3123 24.279 11.5983 23.2475 11.9092C22.2896 12.1827 20.8774 12.4935 20.816 12.4314C20.7177 12.3319 21.8843 10.0441 22.351 9.40996C23.5913 7.7687 25.0895 7.15944 26.3789 7.75627ZM71.0546 8.7261C72.43 9.42239 73.5844 11.188 73.6949 12.7547C73.8546 15.2538 72.0125 17.2681 69.5319 17.2806C69.0775 17.2806 68.6723 17.2557 68.6354 17.2184C68.5986 17.1811 68.7337 16.5221 68.9302 15.7636C69.1266 14.9927 69.3108 14.1597 69.3477 13.8986C69.3968 13.6375 69.4582 13.252 69.4828 13.0531C69.5196 12.8417 69.5687 12.5308 69.5933 12.3443C69.6547 11.9465 69.8143 9.94461 69.888 8.62663C69.9126 8.19145 70.0354 8.20388 71.0546 8.7261ZM29.0806 12.307C29.363 13.7369 29.4736 16.0496 29.2525 16.0745C29.1543 16.0745 28.5894 16.2237 27.9754 16.3978C24.7457 17.3179 24.8071 17.3054 19.5511 17.3925C16.26 17.4546 15.4372 17.5168 13.4232 17.8525C12.0847 18.0888 10.4391 18.5737 8.5111 19.3446C7.5164 19.73 7.35676 19.7549 6.86554 19.5186C6.34977 19.27 6.0796 18.8223 5.98136 18.0639C5.91996 17.6038 5.96908 17.4546 6.28837 17.0194C6.75502 16.3853 7.11115 16.2112 9.29704 15.5398C11.7777 14.7814 12.2443 14.6446 13.4846 14.4208C14.6513 14.2094 14.7495 14.197 17.7213 13.9856C19.6002 13.8488 20.3247 13.7867 20.9142 13.6748C21.0861 13.6375 21.4177 13.5877 21.651 13.5504C22.5475 13.4136 24.7334 12.7174 26.6859 11.9465C27.8034 11.5113 28.749 11.2004 28.7982 11.2377C28.835 11.275 28.9578 11.7599 29.0806 12.307ZM29.1052 18.0141C28.9455 19.2451 28.3315 21.1475 27.7789 22.1422C27.4473 22.7141 27.3736 22.7887 26.7842 22.9255C26.4281 23.0125 25.2491 23.0996 24.1685 23.1369C20.2388 23.2488 18.2617 23.3234 17.7213 23.3731C17.4143 23.4104 16.6407 23.4975 16.0021 23.5721C15.0074 23.6715 12.5268 24.2932 10.3531 24.9895C8.86723 25.462 8.79355 25.4744 8.30234 25.3252C7.71288 25.1511 7.40588 24.6538 7.40588 23.8953C7.40588 23.398 7.46728 23.2861 7.94621 22.8385C8.5725 22.2541 9.14968 21.9681 10.476 21.5702C10.9794 21.421 11.5321 21.2469 11.704 21.1848C12.1584 21.0231 14.332 20.4885 15.9407 20.1403C17.0582 19.8917 17.8073 19.8171 19.6493 19.7797C20.9142 19.7424 22.2405 19.6554 22.572 19.5808C22.9159 19.4938 23.272 19.4192 23.3825 19.3943C23.8983 19.2824 25.3228 18.7975 26.4649 18.3374C29.3385 17.1687 29.2157 17.1811 29.1052 18.0141ZM20.5458 18.5239C20.5458 18.5612 20.5212 18.5861 20.4844 18.5861C20.4476 18.5861 20.423 18.5612 20.423 18.5239C20.423 18.4866 20.4476 18.4618 20.4844 18.4618C20.5212 18.4618 20.5458 18.4866 20.5458 18.5239ZM20.9142 18.5239C20.9142 18.5612 20.8896 18.5861 20.8528 18.5861C20.816 18.5861 20.7914 18.5612 20.7914 18.5239C20.7914 18.4866 20.816 18.4618 20.8528 18.4618C20.8896 18.4618 20.9142 18.4866 20.9142 18.5239ZM16.5547 18.785C16.481 18.7975 15.5477 19.0213 14.467 19.27C13.3864 19.5186 12.0601 19.8544 11.5198 20.016C9.40756 20.6501 7.81113 20.9734 8.08129 20.7247C8.17954 20.6252 9.35844 20.1776 9.61633 20.1403C9.65317 20.1403 10.1198 19.9787 10.6602 19.8046C11.9619 19.357 13.4232 19.0089 14.4056 18.8969C14.8477 18.8472 15.4863 18.7602 15.8179 18.7229C16.3459 18.6483 16.8985 18.698 16.5547 18.785ZM17.2301 18.6483C17.2301 18.6856 17.2056 18.7104 17.1687 18.7104C17.1319 18.7104 17.1073 18.6856 17.1073 18.6483C17.1073 18.611 17.1319 18.5861 17.1687 18.5861C17.2056 18.5861 17.2301 18.611 17.2301 18.6483ZM16.8617 18.7726C16.8617 18.8099 16.8371 18.8348 16.8003 18.8348C16.7635 18.8348 16.7389 18.8099 16.7389 18.7726C16.7389 18.7353 16.7635 18.7104 16.8003 18.7104C16.8371 18.7104 16.8617 18.7353 16.8617 18.7726ZM26.1456 24.43C25.7035 24.9149 25.6667 25.1511 25.9982 25.4869C26.207 25.6982 26.4772 25.7977 27.0052 25.8599C27.4105 25.8972 27.828 25.9469 27.9385 25.9593C28.4297 26.0215 26.2807 28.7196 25.3719 29.2046C24.1685 29.8263 23.1861 29.503 22.0563 28.1228C21.6756 27.6379 20.8651 25.7107 20.6318 24.6787L20.5581 24.3678L22.7931 24.343C24.0211 24.343 25.2491 24.2808 25.5193 24.2186C25.7772 24.1564 26.0965 24.1067 26.2193 24.1067C26.4035 24.1067 26.4035 24.144 26.1456 24.43Z" fill="black"/>
<path d="M70.7966 10.4175C70.4282 10.5916 70.33 11.0516 70.5756 11.4371C70.7966 11.7728 71.0913 11.8225 71.3983 11.5863C72.0124 11.1014 71.4966 10.0942 70.7966 10.4175Z" fill="black"/>
<path d="M70.6128 14.0848C70.3672 14.3583 70.3426 14.8681 70.5514 15.0795C70.7847 15.3157 71.2268 15.2535 71.4355 14.9551C71.6934 14.5821 71.6812 14.408 71.3864 14.1096C71.0794 13.7988 70.8707 13.7988 70.6128 14.0848Z" fill="black"/>
</svg>
